<svg xmlns="http://www.w3.org/2000/svg" version="1.1" xmlns:xlink="http://www.w3.org/1999/xlink" xmlns:svgjs="http://svgjs.dev/svgjs" width="36" height="36" viewBox="0 0 36 36"><g transform="matrix(1,0,0,1,-0.19086711908096277,0.6165209967987266)"><svg viewBox="0 0 325 247" data-background-color="#ffffff" preserveAspectRatio="xMidYMid meet" height="36" width="36" xmlns="http://www.w3.org/2000/svg" xmlns:xlink="http://www.w3.org/1999/xlink"><g id="tight-bounds" transform="matrix(1,0,0,1,0.03122187092714057,-0.09997365579206985)"><svg viewBox="0 0 324.9377622222222 247.2" height="247.2" width="324.9377622222222"><g><svg viewBox="0 0 324.9377622222222 247.2" height="247.2" width="324.9377622222222"><g><svg viewBox="0 0 324.9377622222222 247.2" height="247.2" width="324.9377622222222"><g id="textblocktransform"><svg viewBox="0 0 324.9377622222222 247.2" height="247.2" width="324.9377622222222" id="textblock"><g><svg viewBox="0 0 324.9377622222222 247.2" height="247.2" width="324.9377622222222"><path d="M324.177 53.02C322.649 27.36 318.296 20.227 318.296 20.227 304.929-6.202 288.248-0.506 273.262 3.292 246.804 3.446 220.453 9.091 194.056 12.119 138.65 12.581 82.77 4.986 27.639 23.717 22.46 29.464-5.373 24.846 0.921 56.304 2.571 69.39 8.59 83.913 8.406 95.922 9.231 98.026 10.377 93.202 10.866 96.23 12.577 104.39 15.372 100.541 17.664 105.365 14.471 118.246 16.762 128.971 18.947 140.21 15.097 143.135 10.163 141.749 7.948 151.449 7.719 158.479 6.482 157.145 5.122 156.837 4.129 156.632 2.128 157.402 2.464 159.608 3.61 167.152-1.309 171.514 1.777 178.904-0.347 186.91 3.243 193.838 2.754 202.511 2.693 204.255 3.029 205.744 3.564 206.154 5.932 208.361 2.479 212.672 2.846 217.342 27.135 249.262 53.486 227.195 78.371 241.872 84.832 231.608 79.975 245.516 82.556 243.36 84.573 240.846 86.039 251.263 88.315 245.362 88.667 243.668 88.132 239.665 89.385 240.435 90.041 240.846 90.622 240.743 90.714 238.382 90.851 234.841 89.644 237.048 89.323 235.201 92.791 225.861 91.936 248.081 95.189 247.158 95.037 244.438 94.09 240.538 96.03 241.051 97.954 237.151 98.016 233.918 99.726 242.693 99.788 244.592 100.093 245.926 100.582 246.85 105.929 237.305 111.245 250.237 116.851 245.926 120.288 241.205 123.588 248.492 127.071 246.696 128.293 245.259 129.53 242.693 130.706 247.004 145.111 247.928 160.464 244.079 174.121 247.158 210.615 241.41 249.615 249.518 288.095 241.923 297.169 238.998 306.594 234.841 315.439 231.506 315.439 231.506 322.604 222.371 322.604 181.316S324.131 145.393 324.36 112.703C324.589 80.013 325.659 78.679 324.131 53.02Z" opacity="1" fill="#ff0000" data-fill-palette-color="tertiary"></path><g transform="matrix(1,0,0,1,55.76831999999999,26.230666666666668)"><svg width="213.40112222222223" viewBox="2.7 -34.3 39.449999999999996 36" height="194.73866666666666" data-palette-color="#ffffff"><path d="M29.75 1.7Q29.55 1.7 29.4 1.65L29.4 1.65Q28.65 1.2 28.15 0.65L28.15 0.65Q28 0.4 27.95 0.4L27.95 0.4Q27.9 0.3 27.8 0.3L27.8 0.3 27.7 0.25Q27.5 0.05 27.5 0.05L27.5 0.05 23.25-6.25Q22.95-6.9 22.4-7.65L22.4-7.65Q22.05-8 21.8-8.4L21.8-8.4Q21.6-8.7 21.4-8.7L21.4-8.7Q21.25-8.7 21.18-8.55 21.1-8.4 21.05-8.15L21.05-8.15Q20.9-6.8 20.9-4.5L20.9-4.5Q20.9-2.3 20.65-0.95L20.65-0.95Q20.5-0.3 20.2-0.3L20.2-0.3 19.9-0.3Q19.8-0.35 19.73-0.38 19.65-0.4 19.65-0.4L19.65-0.4Q17.9-0.25 14.4-0.05L14.4-0.05Q11 0.15 9.2 0.15L9.2 0.15Q8.7 0.15 8.4 0.05L8.4 0.05 7.3 0.05 6.4 0.05 5.95 0.05 4.15-0.55 4-0.95Q4-1 3.98-1.15 3.95-1.3 3.95-1.55L3.95-1.55Q3.95-1.85 3.85-2.65L3.85-2.65Q3.6-5.7 3.65-5.05L3.65-5.05Q3.55-6.35 3.3-9.55L3.3-9.55 3.15-11.4Q3.15-12.3 3.1-13 3.05-13.7 3-14.2L3-14.2 2.9-15.3Q2.75-17.35 2.75-19.15L2.75-19.15Q2.75-19.2 2.78-19.3 2.8-19.4 2.8-19.7L2.8-19.7Q2.9-20 2.9-20.65L2.9-20.65 2.95-21.55 3-22.15Q3-23.2 2.9-25.2L2.9-25.2Q2.7-26.45 2.7-28.4L2.7-28.4Q2.7-31.2 3.05-32.5L3.05-32.5Q3.5-34.3 4.55-34.3L4.55-34.3Q10.2-34.3 16.05-34.15L16.05-34.15Q17.35-34.15 19.95-34.05L19.95-34.05 21.9-34Q25.9-33.9 27.45-33.9L27.45-33.9Q33.9-33.6 37.2-30.65L37.2-30.65Q38.7-29.4 39.43-27.65 40.15-25.9 40.15-23.9L40.15-23.9Q40.15-21.6 39.3-19.65L39.3-19.65Q38.6-18.1 37.3-16.8L37.3-16.8Q36.05-15.55 34.45-14.8L34.45-14.8Q34.75-14.65 35.25-14.15L35.25-14.15Q35.45-13.9 35.95-13.5L35.95-13.5 36.65-13Q36.8-12.75 37-12.53 37.2-12.3 37.4-12.05L37.4-12.05 39.75-9.15Q41.35-7.1 41.8-6.15L41.8-6.15Q42.15-5.5 42.15-5.15L42.15-5.15Q42.15-4.65 41.75-4.25 41.35-3.85 40.55-3.25L40.55-3.25Q39.95-2.8 39.15-2.4L39.15-2.4Q38.4-2 38-1.65L38-1.65 36.15-0.65Q35.15-0.1 34 0.3L34 0.3Q33.95 0.3 33.88 0.35 33.8 0.4 33.65 0.45L33.65 0.45Q33.35 0.6 32 1L32 1Q31.75 1.15 31.15 1.25L31.15 1.25Q31 1.35 30.8 1.4 30.6 1.45 30.5 1.45L30.5 1.45 30.25 1.45Q30.2 1.7 30.05 1.7L30.05 1.7 29.9 1.7 29.75 1.7ZM20.8-15.95L21.55-15.95Q23.1-15.95 24-17.5L24-17.5Q24.85-18.9 24.95-20.7L24.95-20.7Q25.05-21.75 25.05-23.2L25.05-23.2 25.05-23.75Q25.05-24.9 24.65-26.15L24.65-26.15Q24.25-27.75 23-28.45L23-28.45Q22.45-28.9 21.55-28.9L21.55-28.9Q21.3-28.9 21.15-28.3L21.15-28.3Q20.7-27.2 20.65-24.8L20.65-24.8Q20.45-23.8 20.45-22.45L20.45-22.45 20.4-20.95Q20.3-18.05 20.3-16.15L20.3-16.15Q20.3-16.1 20.35-16.05 20.4-16 20.45-16L20.45-16 20.8-15.95Z" opacity="1" transform="matrix(1,0,0,1,0,0)" fill="#ffffff" class="wordmark-text-0" data-fill-palette-color="quaternary" id="text-0"></path></svg></g></svg></g></svg></g></svg></g><g></g></svg></g><defs></defs></svg><rect width="324.9377622222222" height="247.2" fill="none" stroke="none" visibility="hidden"></rect></g></svg></g></svg>